<svg width="80" height="400" viewBox="0 0 80 400" fill="none" xmlns="http://www.w3.org/2000/svg">
<g clip-path="url(#clip0_127_24416)">
<path d="M26 18H14" stroke="#5C5C5C" stroke-width="2" stroke-linecap="round" stroke-linejoin="round"/>
<path d="M29 14H11" stroke="#5C5C5C" stroke-width="2" stroke-linecap="round" stroke-linejoin="round"/>
<path d="M29 22H11" stroke="#5C5C5C" stroke-width="2" stroke-linecap="round" stroke-linejoin="round"/>
<path d="M26 26H14" stroke="#5C5C5C" stroke-width="2" stroke-linecap="round" stroke-linejoin="round"/>
<path d="M29 58H11" stroke="#5C5C5C" stroke-width="2" stroke-linecap="round" stroke-linejoin="round"/>
<path d="M29 54H11" stroke="#5C5C5C" stroke-width="2" stroke-linecap="round" stroke-linejoin="round"/>
<path d="M29 62H11" stroke="#5C5C5C" stroke-width="2" stroke-linecap="round" stroke-linejoin="round"/>
<path d="M29 66H11" stroke="#5C5C5C" stroke-width="2" stroke-linecap="round" stroke-linejoin="round"/>
<path d="M25 98H11" stroke="#5C5C5C" stroke-width="2" stroke-linecap="round" stroke-linejoin="round"/>
<path d="M29 94H11" stroke="#5C5C5C" stroke-width="2" stroke-linecap="round" stroke-linejoin="round"/>
<path d="M29 102H11" stroke="#5C5C5C" stroke-width="2" stroke-linecap="round" stroke-linejoin="round"/>
<path d="M25 106H11" stroke="#5C5C5C" stroke-width="2" stroke-linecap="round" stroke-linejoin="round"/>
<path d="M29 138H15" stroke="#5C5C5C" stroke-width="2" stroke-linecap="round" stroke-linejoin="round"/>
<path d="M29 134H11" stroke="#5C5C5C" stroke-width="2" stroke-linecap="round" stroke-linejoin="round"/>
<path d="M29 142H11" stroke="#5C5C5C" stroke-width="2" stroke-linecap="round" stroke-linejoin="round"/>
<path d="M29 146H15" stroke="#5C5C5C" stroke-width="2" stroke-linecap="round" stroke-linejoin="round"/>
<path d="M13 172H21C22.0609 172 23.0783 172.421 23.8284 173.172C24.5786 173.922 25 174.939 25 176C25 177.061 24.5786 178.078 23.8284 178.828C23.0783 179.579 22.0609 180 21 180H13V172Z" stroke="#5C5C5C" stroke-width="2" stroke-linecap="round" stroke-linejoin="round"/>
<path d="M13 180H22C23.0609 180 24.0783 180.421 24.8284 181.172C25.5786 181.922 26 182.939 26 184C26 185.061 25.5786 186.078 24.8284 186.828C24.0783 187.579 23.0609 188 22 188H13V180Z" stroke="#5C5C5C" stroke-width="2" stroke-linecap="round" stroke-linejoin="round"/>
<path d="M12 227.5C12 226.837 12.2634 226.201 12.7322 225.732C13.2011 225.263 13.837 225 14.5 225H28" stroke="#5C5C5C" stroke-width="2" stroke-linecap="round" stroke-linejoin="round"/>
<path d="M14.5 210H28V230H14.5C13.837 230 13.2011 229.737 12.7322 229.268C12.2634 228.799 12 228.163 12 227.5V212.5C12 211.837 12.2634 211.201 12.7322 210.732C13.2011 210.263 13.837 210 14.5 210V210Z" stroke="#5C5C5C" stroke-width="2" stroke-linecap="round" stroke-linejoin="round"/>
<path d="M10 251H16C17.0609 251 18.0783 251.421 18.8284 252.172C19.5786 252.922 20 253.939 20 255V269C20 268.204 19.6839 267.441 19.1213 266.879C18.5587 266.316 17.7956 266 17 266H10V251Z" stroke="#5C5C5C" stroke-width="2" stroke-linecap="round" stroke-linejoin="round"/>
<path d="M30 251H24C22.9391 251 21.9217 251.421 21.1716 252.172C20.4214 252.922 20 253.939 20 255V269C20 268.204 20.3161 267.441 20.8787 266.879C21.4413 266.316 22.2044 266 23 266H30V251Z" stroke="#5C5C5C" stroke-width="2" stroke-linecap="round" stroke-linejoin="round"/>
<path d="M24 292H26C26.5304 292 27.0391 292.211 27.4142 292.586C27.7893 292.961 28 293.47 28 294V308C28 308.53 27.7893 309.039 27.4142 309.414C27.0391 309.789 26.5304 310 26 310H14C13.4696 310 12.9609 309.789 12.5858 309.414C12.2107 309.039 12 308.53 12 308V294C12 293.47 12.2107 292.961 12.5858 292.586C12.9609 292.211 13.4696 292 14 292H16" stroke="#5C5C5C" stroke-width="2" stroke-linecap="round" stroke-linejoin="round"/>
<path d="M23 290H17C16.4477 290 16 290.448 16 291V293C16 293.552 16.4477 294 17 294H23C23.5523 294 24 293.552 24 293V291C24 290.448 23.5523 290 23 290Z" stroke="#5C5C5C" stroke-width="2" stroke-linecap="round" stroke-linejoin="round"/>
<path d="M28 337H19C17.8954 337 17 337.895 17 339V348C17 349.105 17.8954 350 19 350H28C29.1046 350 30 349.105 30 348V339C30 337.895 29.1046 337 28 337Z" stroke="#5C5C5C" stroke-width="2" stroke-linecap="round" stroke-linejoin="round"/>
<path d="M13 343H12C11.4696 343 10.9609 342.789 10.5858 342.414C10.2107 342.039 10 341.53 10 341V332C10 331.47 10.2107 330.961 10.5858 330.586C10.9609 330.211 11.4696 330 12 330H21C21.5304 330 22.0391 330.211 22.4142 330.586C22.7893 330.961 23 331.47 23 332V333" stroke="#5C5C5C" stroke-width="2" stroke-linecap="round" stroke-linejoin="round"/>
<path d="M14.13 369L14 384C14 384.53 14.2107 385.039 14.5858 385.414C14.9609 385.789 15.4696 386 16 386H31" stroke="#5C5C5C" stroke-width="2" stroke-linecap="round" stroke-linejoin="round"/>
<path d="M9 374.13L24 374C24.5304 374 25.0391 374.211 25.4142 374.586C25.7893 374.961 26 375.47 26 376V391" stroke="#5C5C5C" stroke-width="2" stroke-linecap="round" stroke-linejoin="round"/>
<path d="M69 12H56L49 20L56 28H69C69.5304 28 70.0391 27.7893 70.4142 27.4142C70.7893 27.0391 71 26.5304 71 26V14C71 13.4696 70.7893 12.9609 70.4142 12.5858C70.0391 12.2107 69.5304 12 69 12V12Z" stroke="#5C5C5C" stroke-width="2" stroke-linecap="round" stroke-linejoin="round"/>
<path d="M66 17L60 23" stroke="#5C5C5C" stroke-width="2" stroke-linecap="round" stroke-linejoin="round"/>
<path d="M60 17L66 23" stroke="#5C5C5C" stroke-width="2" stroke-linecap="round" stroke-linejoin="round"/>
<path d="M59.995 50L65.655 55.66C66.7743 56.7786 67.5368 58.2041 67.8459 59.7561C68.155 61.308 67.9969 62.9168 67.3915 64.379C66.7862 65.8411 65.7608 67.0908 64.4451 67.9701C63.1294 68.8494 61.5825 69.3187 60 69.3187C58.4175 69.3187 56.8706 68.8494 55.5549 67.9701C54.2392 67.0908 53.2138 65.8411 52.6085 64.379C52.0031 62.9168 51.845 61.308 52.1541 59.7561C52.4632 58.2041 53.2257 56.7786 54.345 55.66L59.995 50Z" stroke="#5C5C5C" stroke-width="2" stroke-linecap="round" stroke-linejoin="round"/>
<path d="M67 92H58" stroke="#5C5C5C" stroke-width="2" stroke-linecap="round" stroke-linejoin="round"/>
<path d="M62 108H53" stroke="#5C5C5C" stroke-width="2" stroke-linecap="round" stroke-linejoin="round"/>
<path d="M63 92L57 108" stroke="#5C5C5C" stroke-width="2" stroke-linecap="round" stroke-linejoin="round"/>
<path d="M52 135V132H68V135" stroke="#5C5C5C" stroke-width="2" stroke-linecap="round" stroke-linejoin="round"/>
<path d="M57 148H63" stroke="#5C5C5C" stroke-width="2" stroke-linecap="round" stroke-linejoin="round"/>
<path d="M60 132V148" stroke="#5C5C5C" stroke-width="2" stroke-linecap="round" stroke-linejoin="round"/>
</g>
<defs>
<clipPath id="clip0_127_24416">
<rect width="80" height="400" fill="white"/>
</clipPath>
</defs>
</svg>
